<?xml version="1.0" encoding="UTF-8" standalone="no"?>
<!DOCTYPE svg PUBLIC "-//W3C//DTD SVG 1.1//EN" "http://www.w3.org/Graphics/SVG/1.1/DTD/svg11.dtd">
<svg width="100%" height="100%" viewBox="0 0 3578 1044" version="1.1" xmlns="http://www.w3.org/2000/svg" xmlns:xlink="http://www.w3.org/1999/xlink" xml:space="preserve" xmlns:serif="http://www.serif.com/" style="fill-rule:evenodd;clip-rule:evenodd;stroke-linejoin:round;stroke-miterlimit:2;">
    <g id="Artboard1" transform="matrix(3.97484,0,0,1.49046,0,0)">
        <rect x="0" y="0" width="900" height="700" style="fill:none;"/>
        <g transform="matrix(0.251583,0,0,0.670934,449.435,351.105)">
            <g transform="matrix(1,0,0,1,-1745.83,-500)">
                <g id="Artboard11" serif:id="Artboard1" transform="matrix(4.16667,0,0,4.16667,0,0)">
                    <rect x="0" y="0" width="837.75" height="240" style="fill:none;"/>
                </g>
                <g transform="matrix(4.16667,0,0,4.16667,0,0)">
                    <clipPath id="_clip1">
                        <rect x="0" y="0" width="837.75" height="240"/>
                    </clipPath>
                    <g clip-path="url(#_clip1)">
                        <g>
                            <g>
                                <path d="M66.358,188.501C58.358,188.501 51.483,187.292 45.733,184.876C39.983,182.459 35.149,179.417 31.233,175.751C27.316,172.084 24.108,168.501 21.608,165.001L19.858,185.501L0.858,185.501L0.858,5.501L21.858,5.501L21.858,74.751C25.858,66.917 31.774,61.001 39.608,57.001C47.441,53.001 56.191,51.001 65.858,51.001C77.858,51.001 88.358,53.917 97.358,59.751C106.358,65.584 113.358,73.626 118.358,83.876C123.358,94.126 125.858,105.917 125.858,119.251C125.858,132.417 123.358,144.251 118.358,154.751C113.358,165.251 106.399,173.501 97.483,179.501C88.566,185.501 78.191,188.501 66.358,188.501ZM63.608,170.251C71.441,170.251 78.399,168.209 84.483,164.126C90.566,160.042 95.399,154.209 98.983,146.626C102.566,139.042 104.358,130.084 104.358,119.751C104.358,109.417 102.566,100.459 98.983,92.876C95.399,85.292 90.566,79.459 84.483,75.376C78.399,71.292 71.441,69.251 63.608,69.251C55.274,69.251 48.024,71.292 41.858,75.376C35.691,79.459 30.941,85.292 27.608,92.876C24.274,100.459 22.608,109.417 22.608,119.751C22.608,130.084 24.274,139.042 27.608,146.626C30.941,154.209 35.691,160.042 41.858,164.126C48.024,168.209 55.274,170.251 63.608,170.251Z" style="fill:rgb(10,42,77);fill-rule:nonzero;"/>
                                <path d="M160.858,185.501L160.858,54.001L181.858,54.001L181.858,185.501L160.858,185.501ZM171.358,29.001C167.191,29.001 163.733,27.626 160.983,24.876C158.233,22.126 156.858,18.667 156.858,14.501C156.858,10.334 158.233,6.959 160.983,4.376C163.733,1.792 167.191,0.501 171.358,0.501C175.358,0.501 178.774,1.792 181.608,4.376C184.441,6.959 185.858,10.334 185.858,14.501C185.858,18.667 184.441,22.126 181.608,24.876C178.774,27.626 175.358,29.001 171.358,29.001Z" style="fill:rgb(10,42,77);fill-rule:nonzero;"/>
                                <path d="M275.858,188.501C264.191,188.501 253.858,185.501 244.858,179.501C235.858,173.501 228.858,165.292 223.858,154.876C218.858,144.459 216.358,132.667 216.358,119.501C216.358,106.167 218.858,94.376 223.858,84.126C228.858,73.876 235.858,65.792 244.858,59.876C253.858,53.959 264.274,51.001 276.108,51.001C286.441,51.001 295.316,53.084 302.733,57.251C310.149,61.417 316.024,67.251 320.358,74.751L320.358,5.501L341.358,5.501L341.358,185.501L322.358,185.501L320.608,164.501C318.108,168.667 314.816,172.584 310.733,176.251C306.649,179.917 301.733,182.876 295.983,185.126C290.233,187.376 283.524,188.501 275.858,188.501ZM278.608,170.251C286.941,170.251 294.191,168.209 300.358,164.126C306.524,160.042 311.274,154.209 314.608,146.626C317.941,139.042 319.608,130.084 319.608,119.751C319.608,109.417 317.941,100.459 314.608,92.876C311.274,85.292 306.524,79.459 300.358,75.376C294.191,71.292 286.941,69.251 278.608,69.251C270.774,69.251 263.774,71.292 257.608,75.376C251.441,79.459 246.608,85.292 243.108,92.876C239.608,100.459 237.858,109.417 237.858,119.751C237.858,130.084 239.608,139.042 243.108,146.626C246.608,154.209 251.441,160.042 257.608,164.126C263.774,168.209 270.774,170.251 278.608,170.251Z" style="fill:rgb(10,42,77);fill-rule:nonzero;"/>
                                <path d="M430.358,185.501C422.858,185.501 416.358,184.334 410.858,182.001C405.358,179.667 401.149,175.709 398.233,170.126C395.316,164.542 393.858,157.001 393.858,147.501L393.858,71.751L370.858,71.751L370.858,54.001L393.858,54.001L396.608,21.251L414.858,21.251L414.858,54.001L452.108,54.001L452.108,71.751L414.858,71.751L414.858,147.501C414.858,155.334 416.441,160.626 419.608,163.376C422.774,166.126 428.358,167.501 436.358,167.501L451.608,167.501L451.608,185.501L430.358,185.501Z" style="fill:rgb(10,42,77);fill-rule:nonzero;"/>
                                <path d="M622.858,185.501L622.858,54.001L641.858,54.001L643.358,78.001C646.358,72.001 650.274,67.001 655.108,63.001C659.941,59.001 665.816,56.001 672.733,54.001C679.649,52.001 687.441,51.001 696.108,51.001L696.108,73.001L683.108,73.001C678.108,73.001 673.274,73.667 668.608,75.001C663.941,76.334 659.733,78.501 655.983,81.501C652.233,84.501 649.274,88.584 647.108,93.751C644.941,98.917 643.858,105.417 643.858,113.251L643.858,185.501L622.858,185.501Z" style="fill:rgb(10,42,77);fill-rule:nonzero;"/>
                                <path d="M737.608,240.501L767.358,171.501L760.108,171.501L710.858,54.001L733.608,54.001L774.358,155.251L816.858,54.001L838.608,54.001L759.358,240.501L737.608,240.501Z" style="fill:rgb(10,42,77);fill-rule:nonzero;"/>
                            </g>
                            <g>
                                <clipPath id="_clip2">
                                    <rect x="463.804" y="53.232" width="139.009" height="135.592"/>
                                </clipPath>
                                <g clip-path="url(#_clip2)">
                                    <g id="Layer-1" serif:id="Layer 1">
                                        <g id="g1">
                                            <path id="path2" d="M528.139,188.762C524.586,188.522 518.697,187.451 514.61,186.301C507.168,184.207 500.82,181.275 494.206,176.874C482.146,168.851 472.801,157.215 467.809,144.007C466.71,141.099 465.902,138.169 464.961,133.673L464.871,133.247L474.783,133.196C482.588,133.156 484.694,133.196 484.694,133.382C484.694,133.513 485.069,134.756 485.528,136.145C489.549,148.327 498.839,159.164 510.228,164.959C517.806,168.815 525.298,170.645 533.57,170.66C537.694,170.667 539.924,170.473 543.383,169.804C560.795,166.437 575.341,153.373 581.202,135.84L582.039,133.336L601.652,133.237L601.271,135.002C597.616,151.922 586.383,167.837 571.108,177.737C562.135,183.552 552.762,186.967 541.763,188.428C539.581,188.717 530.702,188.936 528.139,188.762ZM532.236,133.134C532.026,133.086 531.383,132.951 530.807,132.834C527.515,132.167 524.328,129.383 523,126.014C522.538,124.842 522.042,122.438 522.042,121.371C522.042,119.986 522.631,117.7 523.389,116.142C524.628,113.597 526.984,111.53 529.772,110.541C531.196,110.036 534.428,109.847 536.008,110.175C537.893,110.568 540.067,111.791 541.585,113.313C543.801,115.533 544.843,117.788 545.029,120.76C545.365,126.138 542.13,131.02 537.19,132.59C535.739,133.051 533.124,133.338 532.236,133.134ZM464.702,132.367C464.711,132.145 464.756,132.1 464.817,132.252C464.872,132.39 464.865,132.554 464.802,132.617C464.738,132.681 464.693,132.568 464.702,132.367ZM602.293,127.905C602.293,127.643 602.336,127.536 602.389,127.667C602.442,127.798 602.442,128.012 602.389,128.143C602.336,128.274 602.293,128.167 602.293,127.905ZM482.994,124.936C483.003,124.714 483.049,124.669 483.109,124.821C483.164,124.958 483.158,125.123 483.094,125.186C483.031,125.249 482.986,125.137 482.994,124.936ZM583.637,123.618C583.639,123.199 583.678,123.05 583.724,123.287C583.769,123.524 583.767,123.867 583.72,124.049C583.672,124.231 583.635,124.037 583.637,123.618ZM463.804,120.474C463.804,119.373 463.836,118.923 463.874,119.474C463.913,120.024 463.913,120.924 463.874,121.474C463.836,122.024 463.804,121.574 463.804,120.474ZM602.706,120.76C602.707,120.026 602.741,119.749 602.783,120.145C602.824,120.54 602.823,121.14 602.781,121.479C602.739,121.817 602.705,121.493 602.706,120.76ZM602.681,118.473C602.684,118.159 602.727,118.053 602.776,118.239C602.824,118.424 602.821,118.681 602.769,118.81C602.716,118.939 602.677,118.788 602.681,118.473ZM583.604,117.123C583.613,116.901 583.658,116.856 583.719,117.008C583.774,117.146 583.767,117.31 583.704,117.374C583.641,117.437 583.596,117.324 583.604,117.123ZM463.954,115.901C463.954,115.639 463.998,115.532 464.051,115.663C464.103,115.794 464.103,116.008 464.051,116.139C463.998,116.27 463.954,116.163 463.954,115.901ZM483.185,113.694C483.194,113.472 483.239,113.426 483.3,113.578C483.355,113.716 483.348,113.88 483.285,113.944C483.222,114.007 483.177,113.894 483.185,113.694ZM583.223,113.694C583.232,113.472 583.277,113.426 583.338,113.578C583.393,113.716 583.386,113.88 583.323,113.944C583.26,114.007 583.214,113.894 583.223,113.694ZM496.222,86.366C496.412,86.156 496.61,85.985 496.662,85.985C496.715,85.985 496.603,86.156 496.413,86.366C496.223,86.575 496.025,86.747 495.973,86.747C495.92,86.747 496.033,86.575 496.222,86.366ZM497.651,84.96C497.651,84.92 497.801,84.77 497.985,84.626C498.287,84.389 498.294,84.396 498.057,84.698C497.808,85.016 497.651,85.117 497.651,84.96ZM567.469,84.222L567.106,83.793L567.535,84.156C567.938,84.497 568.051,84.651 567.898,84.651C567.862,84.651 567.669,84.458 567.469,84.222ZM498.89,83.698C499.08,83.488 499.278,83.317 499.33,83.317C499.383,83.317 499.27,83.488 499.081,83.698C498.891,83.908 498.693,84.079 498.64,84.079C498.588,84.079 498.7,83.908 498.89,83.698ZM500.129,82.673C500.129,82.634 500.279,82.484 500.462,82.34C500.764,82.103 500.771,82.11 500.534,82.412C500.285,82.729 500.129,82.83 500.129,82.673ZM480.121,77.338C480.121,77.298 480.271,77.148 480.454,77.005C480.757,76.768 480.763,76.774 480.526,77.076C480.277,77.394 480.121,77.495 480.121,77.338ZM481.741,75.504C481.93,75.295 482.128,75.123 482.181,75.123C482.233,75.123 482.121,75.295 481.931,75.504C481.741,75.714 481.543,75.886 481.491,75.886C481.439,75.886 481.551,75.714 481.741,75.504ZM580.617,71.836L580.254,71.408L580.683,71.771C581.086,72.112 581.198,72.265 581.046,72.265C581.01,72.265 580.817,72.072 580.617,71.836ZM485.552,71.693C485.741,71.484 485.939,71.312 485.992,71.312C486.044,71.312 485.932,71.484 485.742,71.693C485.552,71.903 485.354,72.075 485.302,72.075C485.25,72.075 485.362,71.903 485.552,71.693ZM526.96,70.992C527.098,70.937 527.262,70.943 527.325,71.007C527.389,71.07 527.276,71.115 527.075,71.107C526.853,71.098 526.808,71.052 526.96,70.992ZM532.284,70.615C532.415,70.562 532.629,70.562 532.76,70.615C532.891,70.667 532.784,70.711 532.522,70.711C532.26,70.711 532.153,70.667 532.284,70.615ZM533.236,70.615C533.367,70.562 533.582,70.562 533.713,70.615C533.844,70.667 533.737,70.711 533.475,70.711C533.213,70.711 533.105,70.667 533.236,70.615ZM522.756,54.037C522.887,53.984 523.102,53.984 523.233,54.037C523.364,54.09 523.256,54.133 522.994,54.133C522.732,54.133 522.625,54.09 522.756,54.037ZM541.811,53.846C541.942,53.793 542.156,53.793 542.287,53.846C542.418,53.899 542.311,53.942 542.049,53.942C541.787,53.942 541.68,53.899 541.811,53.846ZM528.094,53.457C528.331,53.411 528.674,53.413 528.856,53.46C529.038,53.508 528.844,53.545 528.425,53.543C528.006,53.541 527.857,53.502 528.094,53.457ZM532.386,53.26C532.992,53.222 533.936,53.222 534.482,53.261C535.028,53.299 534.532,53.33 533.379,53.33C532.226,53.329 531.779,53.298 532.386,53.26Z" style="fill:rgb(10,42,77);fill-rule:nonzero;"/>
                                            <path id="path1" d="M464.703,131.669C464.57,130.804 464.427,129.882 464.386,129.62C464.035,127.364 463.887,123.559 463.981,119.235C464.041,116.51 464.132,114.067 464.183,113.805C464.235,113.543 464.333,112.814 464.401,112.185C464.606,110.294 465.413,106.249 466.131,103.515C467.946,96.607 472.018,88.225 476.608,81.945C485.716,69.485 498.357,60.476 512.497,56.367C514.986,55.644 520.275,54.443 521.756,54.265C522.28,54.202 523.652,54.008 524.805,53.834C527.526,53.423 538.154,53.365 540.906,53.747C550.635,55.098 557.118,57.036 564.65,60.848C571.807,64.469 577.421,68.547 583.112,74.258C592.583,83.762 598.986,95.374 601.502,107.612C602.289,111.437 602.486,113.465 602.587,118.759C602.687,124.002 602.474,127.775 601.853,131.764L601.623,133.241L582.057,133.241L582.176,132.717C582.242,132.428 582.453,131.55 582.646,130.764C584.032,125.103 584.137,117.493 582.915,111.232C579.478,93.615 566.177,78.928 548.336,73.051C537.881,69.606 526.226,69.876 515.318,73.815C500.229,79.264 488.618,92.039 484.429,107.802C482.43,115.324 482.303,122.846 484.039,130.922C484.295,132.109 484.504,133.117 484.504,133.161C484.504,133.205 480.103,133.241 474.725,133.241L464.946,133.241L464.703,131.669Z" style="fill:rgb(0,169,157);fill-rule:nonzero;"/>
                                        </g>
                                    </g>
                                </g>
                            </g>
                        </g>
                    </g>
                </g>
            </g>
        </g>
        <g transform="matrix(0.251583,0,0,0.670934,-709.77,-163.679)">
            <path d="M2870.03,1260.79L2870.03,1120.79L2911.28,1120.79C2927.63,1120.79 2941.14,1123.63 2951.8,1129.29C2962.45,1134.96 2970.35,1143.03 2975.48,1153.49C2980.62,1163.96 2983.18,1176.53 2983.18,1191.19C2983.18,1205.59 2980.62,1217.99 2975.48,1228.39C2970.35,1238.79 2962.45,1246.79 2951.8,1252.39C2941.14,1257.99 2927.63,1260.79 2911.28,1260.79L2870.03,1260.79ZM2886.83,1246.79L2910.88,1246.79C2924.44,1246.79 2935.25,1244.56 2943.3,1240.09C2951.36,1235.63 2957.12,1229.23 2960.58,1220.89C2964.05,1212.56 2965.78,1202.66 2965.78,1191.19C2965.78,1179.46 2964.05,1169.39 2960.58,1160.99C2957.12,1152.59 2951.36,1146.13 2943.3,1141.59C2935.25,1137.06 2924.44,1134.79 2910.88,1134.79L2886.83,1134.79L2886.83,1246.79Z" style="fill:rgb(155,155,155);fill-opacity:0.69;fill-rule:nonzero;"/>
            <path d="M3041.63,1260.79L3041.63,1120.79L3128.23,1120.79L3128.23,1134.59L3058.43,1134.59L3058.43,1183.39L3122.23,1183.39L3122.23,1196.99L3058.43,1196.99L3058.43,1246.99L3128.23,1246.99L3128.23,1260.79L3041.63,1260.79Z" style="fill:rgb(155,155,155);fill-opacity:0.69;fill-rule:nonzero;"/>
            <path d="M3237.33,1263.19C3227.06,1263.19 3218.13,1261.33 3210.53,1257.59C3202.93,1253.86 3197.06,1248.66 3192.93,1241.99C3188.8,1235.33 3186.73,1227.59 3186.73,1218.79L3204.33,1218.79C3204.33,1224.26 3205.6,1229.29 3208.13,1233.89C3210.66,1238.49 3214.36,1242.16 3219.23,1244.89C3224.1,1247.63 3230.13,1248.99 3237.33,1248.99C3243.6,1248.99 3248.96,1247.96 3253.43,1245.89C3257.9,1243.83 3261.3,1240.99 3263.63,1237.39C3265.96,1233.79 3267.13,1229.73 3267.13,1225.19C3267.13,1219.73 3265.96,1215.29 3263.61,1211.89C3261.26,1208.49 3258.07,1205.72 3254.06,1203.57C3250.04,1201.42 3245.42,1199.53 3240.21,1197.89C3234.99,1196.26 3229.5,1194.46 3223.73,1192.49C3212.7,1188.76 3204.57,1184.11 3199.36,1178.54C3194.14,1172.98 3191.53,1165.73 3191.53,1156.79C3191.53,1149.19 3193.3,1142.53 3196.83,1136.79C3200.36,1131.06 3205.43,1126.56 3212.03,1123.29C3218.63,1120.03 3226.46,1118.39 3235.53,1118.39C3244.46,1118.39 3252.23,1120.06 3258.83,1123.39C3265.43,1126.73 3270.6,1131.29 3274.33,1137.09C3278.06,1142.89 3279.93,1149.59 3279.93,1157.19L3262.33,1157.19C3262.33,1153.33 3261.33,1149.53 3259.33,1145.79C3257.33,1142.06 3254.3,1138.96 3250.23,1136.49C3246.16,1134.03 3241.06,1132.79 3234.93,1132.79C3229.86,1132.66 3225.36,1133.49 3221.43,1135.29C3217.5,1137.09 3214.43,1139.66 3212.23,1142.99C3210.03,1146.33 3208.93,1150.39 3208.93,1155.19C3208.93,1159.73 3209.9,1163.39 3211.83,1166.19C3213.76,1168.99 3216.56,1171.36 3220.23,1173.29C3223.9,1175.23 3228.2,1176.99 3233.13,1178.59C3238.06,1180.19 3243.53,1181.99 3249.53,1183.99C3256.33,1186.26 3262.36,1189.03 3267.63,1192.29C3272.9,1195.56 3277.03,1199.73 3280.03,1204.79C3283.03,1209.86 3284.53,1216.33 3284.53,1224.19C3284.53,1230.86 3282.76,1237.16 3279.23,1243.09C3275.7,1249.03 3270.46,1253.86 3263.53,1257.59C3256.6,1261.33 3247.86,1263.19 3237.33,1263.19Z" style="fill:rgb(155,155,155);fill-opacity:0.69;fill-rule:nonzero;"/>
            <path d="M3401.48,1263.19C3387.88,1263.19 3376.12,1260.16 3366.21,1254.09C3356.29,1248.03 3348.65,1239.56 3343.28,1228.69C3337.91,1217.83 3335.23,1205.19 3335.23,1190.79C3335.23,1176.39 3337.91,1163.76 3343.28,1152.89C3348.65,1142.03 3356.29,1133.56 3366.21,1127.49C3376.12,1121.43 3387.88,1118.39 3401.48,1118.39C3417.55,1118.39 3430.56,1122.19 3440.53,1129.79C3450.5,1137.39 3456.88,1148.13 3459.68,1161.99L3441.18,1161.99C3439.01,1153.33 3434.67,1146.36 3428.16,1141.09C3421.64,1135.83 3412.75,1133.19 3401.48,1133.19C3391.58,1133.19 3382.94,1135.49 3375.56,1140.09C3368.17,1144.69 3362.47,1151.29 3358.46,1159.89C3354.44,1168.49 3352.43,1178.79 3352.43,1190.79C3352.43,1202.79 3354.44,1213.09 3358.46,1221.69C3362.47,1230.29 3368.17,1236.89 3375.56,1241.49C3382.94,1246.09 3391.58,1248.39 3401.48,1248.39C3412.75,1248.39 3421.64,1245.83 3428.16,1240.69C3434.67,1235.56 3439.01,1228.73 3441.18,1220.19L3459.68,1220.19C3456.88,1233.66 3450.5,1244.19 3440.53,1251.79C3430.56,1259.39 3417.55,1263.19 3401.48,1263.19Z" style="fill:rgb(155,155,155);fill-opacity:0.69;fill-rule:nonzero;"/>
            <path d="M3572.53,1263.19C3562.93,1263.19 3554.23,1261.26 3546.43,1257.39C3538.63,1253.53 3532.4,1247.63 3527.73,1239.69C3523.06,1231.76 3520.73,1221.59 3520.73,1209.19L3520.73,1120.79L3537.53,1120.79L3537.53,1209.39C3537.53,1218.46 3539.03,1225.86 3542.03,1231.59C3545.03,1237.33 3549.2,1241.53 3554.53,1244.19C3559.86,1246.86 3566,1248.19 3572.93,1248.19C3580,1248.19 3586.13,1246.86 3591.33,1244.19C3596.53,1241.53 3600.6,1237.33 3603.53,1231.59C3606.46,1225.86 3607.93,1218.46 3607.93,1209.39L3607.93,1120.79L3624.73,1120.79L3624.73,1209.19C3624.73,1221.59 3622.4,1231.76 3617.73,1239.69C3613.06,1247.63 3606.8,1253.53 3598.93,1257.39C3591.06,1261.26 3582.26,1263.19 3572.53,1263.19Z" style="fill:rgb(155,155,155);fill-opacity:0.69;fill-rule:nonzero;"/>
            <path d="M3693.23,1260.79L3693.23,1120.79L3742.43,1120.79C3752.3,1120.79 3760.46,1122.36 3766.93,1125.49C3773.4,1128.63 3778.23,1132.89 3781.43,1138.29C3784.63,1143.69 3786.23,1149.73 3786.23,1156.39C3786.23,1163.59 3784.66,1169.59 3781.53,1174.39C3778.4,1179.19 3774.33,1182.86 3769.33,1185.39C3764.33,1187.93 3759.03,1189.46 3753.43,1189.99L3756.23,1187.99C3762.23,1188.13 3767.76,1189.73 3772.83,1192.79C3777.9,1195.86 3781.93,1199.99 3784.93,1205.19C3787.93,1210.39 3789.43,1216.19 3789.43,1222.59C3789.43,1229.66 3787.7,1236.09 3784.23,1241.89C3780.76,1247.69 3775.66,1252.29 3768.93,1255.69C3762.2,1259.09 3753.9,1260.79 3744.03,1260.79L3693.23,1260.79ZM3710.03,1246.79L3742.23,1246.79C3751.7,1246.79 3759.06,1244.56 3764.33,1240.09C3769.6,1235.63 3772.23,1229.39 3772.23,1221.39C3772.23,1213.53 3769.53,1207.23 3764.13,1202.49C3758.73,1197.76 3751.3,1195.39 3741.83,1195.39L3710.03,1195.39L3710.03,1246.79ZM3710.03,1181.99L3741.23,1181.99C3750.3,1181.99 3757.2,1179.86 3761.93,1175.59C3766.66,1171.33 3769.03,1165.53 3769.03,1158.19C3769.03,1151.13 3766.66,1145.46 3761.93,1141.19C3757.2,1136.93 3750.1,1134.79 3740.63,1134.79L3710.03,1134.79L3710.03,1181.99Z" style="fill:rgb(155,155,155);fill-opacity:0.69;fill-rule:nonzero;"/>
            <path d="M3851.83,1260.79L3851.83,1120.79L3897.03,1120.79C3907.96,1120.79 3916.9,1122.63 3923.83,1126.29C3930.76,1129.96 3935.9,1134.86 3939.23,1140.99C3942.56,1147.13 3944.23,1154.06 3944.23,1161.79C3944.23,1169.26 3942.53,1176.13 3939.13,1182.39C3935.73,1188.66 3930.5,1193.66 3923.43,1197.39C3916.36,1201.13 3907.3,1202.99 3896.23,1202.99L3868.63,1202.99L3868.63,1260.79L3851.83,1260.79ZM3925.83,1260.79L3895.03,1198.19L3913.83,1198.19L3945.63,1260.79L3925.83,1260.79ZM3868.63,1189.79L3895.83,1189.79C3906.5,1189.79 3914.33,1187.19 3919.33,1181.99C3924.33,1176.79 3926.83,1170.13 3926.83,1161.99C3926.83,1153.73 3924.4,1147.16 3919.53,1142.29C3914.66,1137.43 3906.7,1134.99 3895.63,1134.99L3868.63,1134.99L3868.63,1189.79Z" style="fill:rgb(155,155,155);fill-opacity:0.69;fill-rule:nonzero;"/>
            <path d="M4008.68,1260.79L4008.68,1120.79L4095.28,1120.79L4095.28,1134.59L4025.48,1134.59L4025.48,1183.39L4089.28,1183.39L4089.28,1196.99L4025.48,1196.99L4025.48,1246.99L4095.28,1246.99L4095.28,1260.79L4008.68,1260.79Z" style="fill:rgb(155,155,155);fill-opacity:0.69;fill-rule:nonzero;"/>
        </g>
    </g>
</svg>
