<?xml version="1.0" encoding="UTF-8" standalone="no"?>
<!DOCTYPE svg PUBLIC "-//W3C//DTD SVG 1.1//EN" "http://www.w3.org/Graphics/SVG/1.1/DTD/svg11.dtd">
<svg width="100%" height="100%" viewBox="0 0 838 240" version="1.1" xmlns="http://www.w3.org/2000/svg" xmlns:xlink="http://www.w3.org/1999/xlink" xml:space="preserve" xmlns:serif="http://www.serif.com/" style="fill-rule:evenodd;clip-rule:evenodd;stroke-linejoin:round;stroke-miterlimit:2;">
    <g id="Artboard1" transform="matrix(1,0,0,1,-74.8577,-117.501)">
        <rect x="74.858" y="117.501" width="837.75" height="240" style="fill:none;"/>
        <g>
            <clipPath id="_clip1">
                <rect x="74.858" y="117.501" width="837.75" height="240"/>
            </clipPath>
            <g clip-path="url(#_clip1)">
                <g transform="matrix(1,0,0,1,0.857699,0.500542)">
                    <g transform="matrix(1,0,0,1,-183.965,80.6931)">
                        <path d="M324.323,224.807C316.323,224.807 309.448,223.599 303.698,221.182C297.948,218.766 293.115,215.724 289.198,212.057C285.281,208.391 282.073,204.807 279.573,201.307L277.823,221.807L258.823,221.807L258.823,41.807L279.823,41.807L279.823,111.057C283.823,103.224 289.74,97.307 297.573,93.307C305.406,89.307 314.156,87.307 323.823,87.307C335.823,87.307 346.323,90.224 355.323,96.057C364.323,101.891 371.323,109.932 376.323,120.182C381.323,130.432 383.823,142.224 383.823,155.557C383.823,168.724 381.323,180.557 376.323,191.057C371.323,201.557 364.365,209.807 355.448,215.807C346.531,221.807 336.156,224.807 324.323,224.807ZM321.573,206.557C329.406,206.557 336.365,204.516 342.448,200.432C348.531,196.349 353.365,190.516 356.948,182.932C360.531,175.349 362.323,166.391 362.323,156.057C362.323,145.724 360.531,136.766 356.948,129.182C353.365,121.599 348.531,115.766 342.448,111.682C336.365,107.599 329.406,105.557 321.573,105.557C313.24,105.557 305.99,107.599 299.823,111.682C293.656,115.766 288.906,121.599 285.573,129.182C282.24,136.766 280.573,145.724 280.573,156.057C280.573,166.391 282.24,175.349 285.573,182.932C288.906,190.516 293.656,196.349 299.823,200.432C305.99,204.516 313.24,206.557 321.573,206.557Z" style="fill:white;fill-rule:nonzero;"/>
                        <path d="M418.823,221.807L418.823,90.307L439.823,90.307L439.823,221.807L418.823,221.807ZM429.323,65.307C425.156,65.307 421.698,63.932 418.948,61.182C416.198,58.432 414.823,54.974 414.823,50.807C414.823,46.641 416.198,43.266 418.948,40.682C421.698,38.099 425.156,36.807 429.323,36.807C433.323,36.807 436.74,38.099 439.573,40.682C442.406,43.266 443.823,46.641 443.823,50.807C443.823,54.974 442.406,58.432 439.573,61.182C436.74,63.932 433.323,65.307 429.323,65.307Z" style="fill:white;fill-rule:nonzero;"/>
                        <path d="M533.823,224.807C522.156,224.807 511.823,221.807 502.823,215.807C493.823,209.807 486.823,201.599 481.823,191.182C476.823,180.766 474.323,168.974 474.323,155.807C474.323,142.474 476.823,130.682 481.823,120.432C486.823,110.182 493.823,102.099 502.823,96.182C511.823,90.266 522.24,87.307 534.073,87.307C544.406,87.307 553.281,89.391 560.698,93.557C568.115,97.724 573.99,103.557 578.323,111.057L578.323,41.807L599.323,41.807L599.323,221.807L580.323,221.807L578.573,200.807C576.073,204.974 572.781,208.891 568.698,212.557C564.615,216.224 559.698,219.182 553.948,221.432C548.198,223.682 541.49,224.807 533.823,224.807ZM536.573,206.557C544.906,206.557 552.156,204.516 558.323,200.432C564.49,196.349 569.24,190.516 572.573,182.932C575.906,175.349 577.573,166.391 577.573,156.057C577.573,145.724 575.906,136.766 572.573,129.182C569.24,121.599 564.49,115.766 558.323,111.682C552.156,107.599 544.906,105.557 536.573,105.557C528.74,105.557 521.74,107.599 515.573,111.682C509.406,115.766 504.573,121.599 501.073,129.182C497.573,136.766 495.823,145.724 495.823,156.057C495.823,166.391 497.573,175.349 501.073,182.932C504.573,190.516 509.406,196.349 515.573,200.432C521.74,204.516 528.74,206.557 536.573,206.557Z" style="fill:white;fill-rule:nonzero;"/>
                        <path d="M688.323,221.807C680.823,221.807 674.323,220.641 668.823,218.307C663.323,215.974 659.115,212.016 656.198,206.432C653.281,200.849 651.823,193.307 651.823,183.807L651.823,108.057L628.823,108.057L628.823,90.307L651.823,90.307L654.573,57.557L672.823,57.557L672.823,90.307L710.073,90.307L710.073,108.057L672.823,108.057L672.823,183.807C672.823,191.641 674.406,196.932 677.573,199.682C680.74,202.432 686.323,203.807 694.323,203.807L709.573,203.807L709.573,221.807L688.323,221.807Z" style="fill:white;fill-rule:nonzero;"/>
                        <path d="M880.823,221.807L880.823,90.307L899.823,90.307L901.323,114.307C904.323,108.307 908.24,103.307 913.073,99.307C917.906,95.307 923.781,92.307 930.698,90.307C937.615,88.307 945.406,87.307 954.073,87.307L954.073,109.307L941.073,109.307C936.073,109.307 931.24,109.974 926.573,111.307C921.906,112.641 917.698,114.807 913.948,117.807C910.198,120.807 907.24,124.891 905.073,130.057C902.906,135.224 901.823,141.724 901.823,149.557L901.823,221.807L880.823,221.807Z" style="fill:white;fill-rule:nonzero;"/>
                        <path d="M995.573,276.807L1025.32,207.807L1018.07,207.807L968.823,90.307L991.573,90.307L1032.32,191.557L1074.82,90.307L1096.57,90.307L1017.32,276.807L995.573,276.807Z" style="fill:white;fill-rule:nonzero;"/>
                    </g>
                    <g transform="matrix(0.0609755,0,0,0.0609755,537.805,170.232)">
                        <g>
                            <g>
                                <clipPath id="_clip2">
                                    <rect x="0" y="0" width="2279.75" height="2223.72"/>
                                </clipPath>
                                <g clip-path="url(#_clip2)">
                                    <g id="g1" transform="matrix(11.811,0,0,11.811,-101.156,-569.099)">
                                        <g id="Layer-1" serif:id="Layer 1">
                                            <g id="g11" serif:id="g1">
                                                <path id="path2" d="M97.896,236.373C92.963,236.039 84.785,234.552 79.11,232.955C68.776,230.048 59.963,225.976 50.779,219.866C34.032,208.725 21.056,192.569 14.125,174.228C12.599,170.19 11.477,166.122 10.17,159.879L10.046,159.288L23.809,159.218C34.647,159.162 37.571,159.217 37.571,159.476C37.571,159.657 38.092,161.384 38.729,163.313C44.312,180.227 57.211,195.275 73.025,203.321C83.548,208.675 93.951,211.216 105.436,211.237C111.164,211.247 114.259,210.977 119.063,210.048C143.239,205.373 163.437,187.234 171.575,162.888L172.737,159.411L199.971,159.274L199.442,161.724C194.366,185.219 178.769,207.317 157.559,221.064C145.101,229.139 132.085,233.881 116.814,235.908C113.783,236.311 101.454,236.613 97.896,236.373ZM103.584,159.131C103.293,159.064 102.4,158.877 101.6,158.715C97.029,157.789 92.604,153.923 90.76,149.245C90.118,147.617 89.429,144.279 89.429,142.798C89.429,140.875 90.247,137.701 91.301,135.537C93.021,132.003 96.292,129.133 100.163,127.76C102.14,127.059 106.628,126.796 108.822,127.252C111.439,127.797 114.458,129.496 116.566,131.608C119.642,134.692 121.09,137.823 121.348,141.949C121.815,149.417 117.323,156.196 110.464,158.376C108.449,159.016 104.818,159.415 103.584,159.131ZM9.81,158.066C9.823,157.758 9.886,157.696 9.97,157.907C10.047,158.098 10.037,158.326 9.949,158.414C9.862,158.502 9.799,158.345 9.81,158.066ZM200.861,151.871C200.861,151.507 200.921,151.358 200.994,151.54C201.067,151.722 201.067,152.02 200.994,152.202C200.921,152.383 200.861,152.235 200.861,151.871ZM35.21,147.748C35.223,147.44 35.286,147.377 35.37,147.588C35.447,147.779 35.437,148.007 35.349,148.095C35.262,148.183 35.199,148.027 35.21,147.748ZM174.956,145.918C174.959,145.336 175.013,145.129 175.077,145.458C175.14,145.787 175.138,146.263 175.072,146.516C175.006,146.769 174.954,146.5 174.957,145.918L174.956,145.918ZM8.565,141.552C8.565,140.024 8.608,139.399 8.662,140.163C8.715,140.927 8.715,142.177 8.662,142.941C8.608,143.705 8.565,143.08 8.565,141.552ZM201.435,141.949C201.436,140.93 201.484,140.546 201.541,141.095C201.598,141.644 201.597,142.477 201.539,142.947C201.481,143.417 201.434,142.968 201.435,141.949ZM201.4,138.774C201.405,138.337 201.464,138.191 201.531,138.448C201.598,138.706 201.594,139.063 201.521,139.242C201.449,139.421 201.394,139.211 201.399,138.774L201.4,138.774ZM174.911,136.9C174.923,136.592 174.986,136.529 175.07,136.74C175.147,136.931 175.137,137.159 175.049,137.247C174.962,137.335 174.899,137.179 174.91,136.9L174.911,136.9ZM8.773,135.202C8.773,134.838 8.833,134.689 8.906,134.871C8.98,135.053 8.98,135.351 8.906,135.533C8.833,135.715 8.773,135.566 8.773,135.202ZM35.475,132.137C35.488,131.829 35.55,131.766 35.635,131.977C35.711,132.168 35.702,132.397 35.614,132.485C35.526,132.572 35.464,132.416 35.475,132.137ZM174.381,132.137C174.394,131.829 174.457,131.766 174.541,131.977C174.618,132.168 174.608,132.397 174.52,132.485C174.432,132.572 174.37,132.416 174.381,132.137ZM53.578,94.192C53.842,93.901 54.117,93.663 54.189,93.663C54.262,93.663 54.106,93.901 53.843,94.192C53.579,94.483 53.304,94.721 53.232,94.721C53.159,94.721 53.315,94.483 53.578,94.192ZM55.562,92.24C55.562,92.185 55.771,91.976 56.026,91.777C56.445,91.448 56.455,91.457 56.125,91.877C55.78,92.317 55.562,92.457 55.562,92.24ZM152.507,91.215L152.003,90.62L152.598,91.124C153.158,91.597 153.314,91.81 153.102,91.81C153.052,91.81 152.784,91.543 152.507,91.215ZM57.282,90.488C57.546,90.196 57.821,89.958 57.893,89.958C57.966,89.958 57.81,90.196 57.547,90.488C57.283,90.779 57.008,91.017 56.936,91.017C56.863,91.017 57.019,90.779 57.282,90.488ZM59.002,89.065C59.002,89.01 59.21,88.801 59.465,88.602C59.885,88.273 59.894,88.282 59.565,88.702C59.219,89.142 59.002,89.282 59.002,89.065ZM31.221,81.656C31.221,81.601 31.429,81.393 31.684,81.193C32.103,80.864 32.113,80.874 31.784,81.293C31.438,81.734 31.221,81.874 31.221,81.656ZM33.47,79.11C33.733,78.819 34.008,78.581 34.081,78.581C34.154,78.581 33.998,78.819 33.734,79.11C33.471,79.401 33.196,79.64 33.123,79.64C33.05,79.64 33.206,79.401 33.47,79.11ZM170.763,74.017L170.259,73.422L170.855,73.926C171.414,74.4 171.57,74.613 171.359,74.613C171.309,74.613 171.041,74.345 170.763,74.017ZM38.761,73.819C39.025,73.528 39.3,73.29 39.373,73.29C39.445,73.29 39.289,73.528 39.026,73.819C38.763,74.11 38.488,74.348 38.415,74.348C38.342,74.348 38.498,74.11 38.761,73.819ZM96.259,72.844C96.45,72.768 96.678,72.777 96.766,72.865C96.854,72.953 96.697,73.016 96.419,73.004C96.11,72.991 96.048,72.929 96.259,72.844ZM103.651,72.321C103.832,72.247 104.13,72.247 104.312,72.321C104.494,72.394 104.345,72.454 103.981,72.454C103.617,72.454 103.469,72.394 103.651,72.321ZM104.973,72.321C105.155,72.247 105.453,72.247 105.635,72.321C105.817,72.394 105.668,72.454 105.304,72.454C104.94,72.454 104.792,72.394 104.973,72.321ZM90.421,49.302C90.603,49.228 90.901,49.228 91.083,49.302C91.265,49.375 91.116,49.435 90.752,49.435C90.388,49.435 90.239,49.375 90.421,49.302ZM116.88,49.037C117.062,48.964 117.359,48.964 117.541,49.037C117.723,49.111 117.574,49.171 117.21,49.171C116.847,49.171 116.698,49.111 116.88,49.037ZM97.833,48.496C98.162,48.433 98.638,48.435 98.891,48.502C99.144,48.568 98.875,48.62 98.293,48.617C97.711,48.614 97.504,48.559 97.833,48.496ZM103.792,48.223C104.635,48.17 105.944,48.171 106.703,48.224C107.462,48.277 106.773,48.32 105.172,48.32C103.571,48.319 102.95,48.276 103.792,48.223Z" style="fill:white;fill-rule:nonzero;"/>
                                                <path id="path1" d="M9.813,157.096C9.627,155.896 9.43,154.616 9.373,154.252C8.885,151.119 8.679,145.835 8.81,139.832C8.893,136.049 9.019,132.655 9.091,132.292C9.162,131.928 9.298,130.916 9.393,130.043C9.677,127.417 10.798,121.8 11.796,118.004C14.316,108.412 19.969,96.773 26.343,88.053C38.99,70.752 56.542,58.243 76.176,52.538C79.632,51.533 86.976,49.866 89.032,49.619C89.76,49.532 91.665,49.262 93.266,49.02C97.045,48.449 111.802,48.37 115.623,48.9C129.133,50.775 138.133,53.466 148.593,58.759C158.53,63.787 166.326,69.45 174.228,77.38C187.379,90.577 196.269,106.701 199.763,123.693C200.855,129.004 201.129,131.82 201.269,139.171C201.408,146.451 201.112,151.689 200.249,157.229L199.93,159.279L172.763,159.279L172.928,158.552C173.02,158.151 173.313,156.931 173.58,155.84C175.505,147.979 175.651,137.413 173.954,128.72C169.181,104.258 150.712,83.865 125.94,75.703C111.423,70.92 95.239,71.295 80.094,76.764C59.141,84.331 43.02,102.07 37.203,123.957C34.427,134.401 34.251,144.845 36.662,156.059C37.016,157.708 37.306,159.107 37.306,159.168C37.306,159.229 31.196,159.279 23.728,159.279L10.15,159.279L9.813,157.096Z" style="fill:white;fill-rule:nonzero;"/>
                                            </g>
                                        </g>
                                    </g>
                                </g>
                            </g>
                        </g>
                    </g>
                </g>
            </g>
        </g>
        <g transform="matrix(1,0,0,1,-2781.22,-904.244)">
            <path d="M2858.67,1260.79L2858.67,1227.19L2868.57,1227.19C2872.49,1227.19 2875.74,1227.87 2878.29,1229.23C2880.85,1230.59 2882.75,1232.53 2883.98,1235.04C2885.21,1237.55 2885.83,1240.57 2885.83,1244.09C2885.83,1247.55 2885.21,1250.52 2883.98,1253.02C2882.75,1255.51 2880.85,1257.43 2878.29,1258.78C2875.74,1260.12 2872.49,1260.79 2868.57,1260.79L2858.67,1260.79ZM2862.7,1257.43L2868.47,1257.43C2871.73,1257.43 2874.32,1256.9 2876.25,1255.83C2878.19,1254.75 2879.57,1253.22 2880.4,1251.22C2881.23,1249.22 2881.65,1246.84 2881.65,1244.09C2881.65,1241.27 2881.23,1238.86 2880.4,1236.84C2879.57,1234.83 2878.19,1233.27 2876.25,1232.19C2874.32,1231.1 2871.73,1230.55 2868.47,1230.55L2862.7,1230.55L2862.7,1257.43Z" style="fill:rgb(245,240,234);fill-opacity:0.71;fill-rule:nonzero;"/>
            <path d="M2899.85,1260.79L2899.85,1227.19L2920.64,1227.19L2920.64,1230.51L2903.89,1230.51L2903.89,1242.22L2919.2,1242.22L2919.2,1245.48L2903.89,1245.48L2903.89,1257.48L2920.64,1257.48L2920.64,1260.79L2899.85,1260.79Z" style="fill:rgb(245,240,234);fill-opacity:0.71;fill-rule:nonzero;"/>
            <path d="M2946.34,1261.37C2943.88,1261.37 2941.73,1260.92 2939.91,1260.03C2938.09,1259.13 2936.68,1257.88 2935.68,1256.28C2934.69,1254.68 2934.2,1252.83 2934.2,1250.71L2938.42,1250.71C2938.42,1252.03 2938.72,1253.23 2939.33,1254.34C2939.94,1255.44 2940.83,1256.32 2942,1256.98C2943.16,1257.63 2944.61,1257.96 2946.34,1257.96C2947.85,1257.96 2949.13,1257.71 2950.2,1257.22C2951.28,1256.72 2952.09,1256.04 2952.65,1255.18C2953.21,1254.31 2953.49,1253.34 2953.49,1252.25C2953.49,1250.94 2953.21,1249.87 2952.65,1249.06C2952.08,1248.24 2951.32,1247.58 2950.36,1247.06C2949.39,1246.54 2948.28,1246.09 2947.03,1245.7C2945.78,1245.31 2944.46,1244.87 2943.08,1244.4C2940.43,1243.51 2938.48,1242.39 2937.23,1241.05C2935.97,1239.72 2935.35,1237.98 2935.35,1235.83C2935.35,1234.01 2935.77,1232.41 2936.62,1231.03C2937.47,1229.66 2938.68,1228.58 2940.27,1227.79C2941.85,1227.01 2943.73,1226.62 2945.91,1226.62C2948.05,1226.62 2949.92,1227.02 2951.5,1227.82C2953.09,1228.62 2954.33,1229.71 2955.22,1231.11C2956.12,1232.5 2956.57,1234.11 2956.57,1235.93L2952.34,1235.93C2952.34,1235 2952.1,1234.09 2951.62,1233.19C2951.14,1232.3 2950.41,1231.55 2949.44,1230.96C2948.46,1230.37 2947.24,1230.07 2945.76,1230.07C2944.55,1230.04 2943.47,1230.24 2942.53,1230.67C2941.58,1231.11 2940.85,1231.72 2940.32,1232.52C2939.79,1233.32 2939.53,1234.3 2939.53,1235.45C2939.53,1236.54 2939.76,1237.42 2940.22,1238.09C2940.68,1238.76 2941.36,1239.33 2942.24,1239.79C2943.12,1240.26 2944.15,1240.68 2945.33,1241.07C2946.52,1241.45 2947.83,1241.88 2949.27,1242.36C2950.9,1242.91 2952.35,1243.57 2953.61,1244.35C2954.88,1245.14 2955.87,1246.14 2956.59,1247.35C2957.31,1248.57 2957.67,1250.12 2957.67,1252.01C2957.67,1253.61 2957.24,1255.12 2956.4,1256.55C2955.55,1257.97 2954.29,1259.13 2952.63,1260.03C2950.97,1260.92 2948.87,1261.37 2946.34,1261.37Z" style="fill:rgb(245,240,234);fill-opacity:0.71;fill-rule:nonzero;"/>
            <path d="M2987.66,1261.37C2984.39,1261.37 2981.57,1260.64 2979.19,1259.19C2976.81,1257.73 2974.98,1255.7 2973.69,1253.09C2972.4,1250.48 2971.76,1247.45 2971.76,1243.99C2971.76,1240.54 2972.4,1237.51 2973.69,1234.9C2974.98,1232.29 2976.81,1230.26 2979.19,1228.8C2981.57,1227.35 2984.39,1226.62 2987.66,1226.62C2991.51,1226.62 2994.64,1227.53 2997.03,1229.35C2999.42,1231.18 3000.95,1233.75 3001.62,1237.08L2997.18,1237.08C2996.66,1235 2995.62,1233.33 2994.06,1232.07C2992.49,1230.8 2990.36,1230.17 2987.66,1230.17C2985.28,1230.17 2983.21,1230.72 2981.43,1231.83C2979.66,1232.93 2978.3,1234.51 2977.33,1236.58C2976.37,1238.64 2975.89,1241.11 2975.89,1243.99C2975.89,1246.87 2976.37,1249.35 2977.33,1251.41C2978.3,1253.47 2979.66,1255.06 2981.43,1256.16C2983.21,1257.27 2985.28,1257.82 2987.66,1257.82C2990.36,1257.82 2992.49,1257.2 2994.06,1255.97C2995.62,1254.74 2996.66,1253.1 2997.18,1251.05L3001.62,1251.05C3000.95,1254.28 2999.42,1256.81 2997.03,1258.63C2994.64,1260.46 2991.51,1261.37 2987.66,1261.37Z" style="fill:rgb(245,240,234);fill-opacity:0.71;fill-rule:nonzero;"/>
            <path d="M3029.19,1261.37C3026.89,1261.37 3024.8,1260.91 3022.93,1259.98C3021.05,1259.05 3019.56,1257.63 3018.44,1255.73C3017.32,1253.83 3016.76,1251.39 3016.76,1248.41L3016.76,1227.19L3020.79,1227.19L3020.79,1248.46C3020.79,1250.63 3021.15,1252.41 3021.87,1253.79C3022.59,1255.16 3023.59,1256.17 3024.87,1256.81C3026.15,1257.45 3027.62,1257.77 3029.28,1257.77C3030.98,1257.77 3032.45,1257.45 3033.7,1256.81C3034.95,1256.17 3035.93,1255.16 3036.63,1253.79C3037.33,1252.41 3037.68,1250.63 3037.68,1248.46L3037.68,1227.19L3041.72,1227.19L3041.72,1248.41C3041.72,1251.39 3041.16,1253.83 3040.04,1255.73C3038.92,1257.63 3037.41,1259.05 3035.53,1259.98C3033.64,1260.91 3031.53,1261.37 3029.19,1261.37Z" style="fill:rgb(245,240,234);fill-opacity:0.71;fill-rule:nonzero;"/>
            <path d="M3058.16,1260.79L3058.16,1227.19L3069.97,1227.19C3072.33,1227.19 3074.29,1227.57 3075.85,1228.32C3077.4,1229.07 3078.56,1230.1 3079.33,1231.39C3080.09,1232.69 3080.48,1234.14 3080.48,1235.74C3080.48,1237.47 3080.1,1238.91 3079.35,1240.06C3078.6,1241.21 3077.62,1242.09 3076.42,1242.7C3075.22,1243.31 3073.95,1243.67 3072.61,1243.8L3073.28,1243.32C3074.72,1243.35 3076.05,1243.74 3077.26,1244.47C3078.48,1245.21 3079.45,1246.2 3080.16,1247.45C3080.89,1248.7 3081.24,1250.09 3081.24,1251.63C3081.24,1253.32 3080.83,1254.87 3080,1256.26C3079.16,1257.65 3077.94,1258.75 3076.33,1259.57C3074.71,1260.39 3072.72,1260.79 3070.35,1260.79L3058.16,1260.79ZM3062.19,1257.43L3069.92,1257.43C3072.19,1257.43 3073.96,1256.9 3075.22,1255.83C3076.49,1254.75 3077.12,1253.26 3077.12,1251.34C3077.12,1249.45 3076.47,1247.94 3075.17,1246.8C3073.88,1245.67 3072.09,1245.1 3069.82,1245.1L3062.19,1245.1L3062.19,1257.43ZM3062.19,1241.88L3069.68,1241.88C3071.85,1241.88 3073.51,1241.37 3074.64,1240.35C3075.78,1239.32 3076.35,1237.93 3076.35,1236.17C3076.35,1234.47 3075.78,1233.11 3074.64,1232.09C3073.51,1231.07 3071.81,1230.55 3069.53,1230.55L3062.19,1230.55L3062.19,1241.88Z" style="fill:rgb(245,240,234);fill-opacity:0.71;fill-rule:nonzero;"/>
            <path d="M3096.7,1260.79L3096.7,1227.19L3107.55,1227.19C3110.17,1227.19 3112.32,1227.63 3113.98,1228.51C3115.64,1229.39 3116.88,1230.57 3117.68,1232.04C3118.48,1233.51 3118.88,1235.18 3118.88,1237.03C3118.88,1238.83 3118.47,1240.47 3117.65,1241.98C3116.84,1243.48 3115.58,1244.68 3113.89,1245.58C3112.19,1246.47 3110.01,1246.92 3107.36,1246.92L3100.73,1246.92L3100.73,1260.79L3096.7,1260.79ZM3114.46,1260.79L3107.07,1245.77L3111.58,1245.77L3119.21,1260.79L3114.46,1260.79ZM3100.73,1243.75L3107.26,1243.75C3109.82,1243.75 3111.7,1243.13 3112.9,1241.88C3114.1,1240.63 3114.7,1239.03 3114.7,1237.08C3114.7,1235.1 3114.12,1233.52 3112.95,1232.35C3111.78,1231.19 3109.87,1230.6 3107.21,1230.6L3100.73,1230.6L3100.73,1243.75Z" style="fill:rgb(245,240,234);fill-opacity:0.71;fill-rule:nonzero;"/>
            <path d="M3134.83,1260.79L3134.83,1227.19L3155.61,1227.19L3155.61,1230.51L3138.86,1230.51L3138.86,1242.22L3154.17,1242.22L3154.17,1245.48L3138.86,1245.48L3138.86,1257.48L3155.61,1257.48L3155.61,1260.79L3134.83,1260.79Z" style="fill:rgb(245,240,234);fill-opacity:0.71;fill-rule:nonzero;"/>
        </g>
    </g>
</svg>
