<?xml version="1.0" encoding="UTF-8" standalone="no"?>
<!-- Created with Inkscape (http://www.inkscape.org/) -->

<svg
   width="113.47957mm"
   height="195.29959mm"
   viewBox="0 0 113.47957 195.29959"
   version="1.1"
   id="svg1"
   xml:space="preserve"
   inkscape:version="1.4 (e7c3feb1, 2024-10-09)"
   sodipodi:docname="LogoPCBulb2.svg"
   inkscape:export-filename="LogoPCBulb2.png"
   inkscape:export-xdpi="96"
   inkscape:export-ydpi="96"
   xmlns:inkscape="http://www.inkscape.org/namespaces/inkscape"
   xmlns:sodipodi="http://sodipodi.sourceforge.net/DTD/sodipodi-0.dtd"
   xmlns="http://www.w3.org/2000/svg"
   xmlns:svg="http://www.w3.org/2000/svg"><sodipodi:namedview
     id="namedview1"
     pagecolor="#ffffff"
     bordercolor="#000000"
     borderopacity="0.25"
     inkscape:showpageshadow="2"
     inkscape:pageopacity="0.0"
     inkscape:pagecheckerboard="0"
     inkscape:deskcolor="#d1d1d1"
     inkscape:document-units="mm"
     inkscape:zoom="0.89887065"
     inkscape:cx="201.92004"
     inkscape:cy="355.44603"
     inkscape:window-width="1200"
     inkscape:window-height="1186"
     inkscape:window-x="1332"
     inkscape:window-y="184"
     inkscape:window-maximized="0"
     inkscape:current-layer="layer1" /><defs
     id="defs1" /><g
     inkscape:label="Layer 1"
     inkscape:groupmode="layer"
     id="layer1"
     transform="translate(-51.659295,-54.354956)"><path
       style="fill:#f5f0ea;fill-opacity:1"
       d="m 106.27566,248.90479 c -0.34863,-1.09844 -3.2741,-6.22624 -5.14334,-9.01529 -2.285532,-3.4102 -6.230262,-8.21929 -9.525352,-11.61251 -1.50733,-1.55222 -3.08111,-3.25905 -3.49729,-3.79295 l -0.75668,-0.97072 1.63393,-2.69131 c 2.08312,-3.43117 3.12501,-6.21697 3.9228,-10.4887 l 0.63626,-3.40684 14.967062,0.0919 14.96705,0.0919 0.80749,3.88056 c 0.8662,4.16267 1.92279,6.86795 3.87324,9.917 0.67367,1.05312 1.22485,2.17678 1.22485,2.49702 0,0.32025 -0.99218,1.63356 -2.20486,2.91847 -5.01056,5.30905 -5.91872,6.34006 -8.50667,9.6575 -2.62149,3.36043 -5.6469,8.16219 -7.31549,11.6107 -0.44593,0.92164 -0.93791,1.6757 -1.09327,1.6757 -0.15537,0 -0.28248,-4.5794 -0.28248,-10.17644 v -10.17644 l 1.23472,-1.27135 c 1.05178,-1.08299 1.23472,-1.51438 1.23472,-2.91162 0,-1.39503 -0.17933,-1.81959 -1.19944,-2.83971 -0.9833,-0.9833 -1.46645,-1.19944 -2.68111,-1.19944 -1.21467,0 -1.69782,0.21614 -2.68112,1.19944 -1.0261,1.0261 -1.19944,1.4407 -1.19944,2.86876 0,1.4508 0.16163,1.82176 1.23472,2.83381 l 1.23472,1.1645 v 10.43063 c 0,9.6289 -0.20349,11.8627 -0.88502,9.71538 z M 88.257088,201.51494 c -0.10256,-0.26727 -0.13777,-1.34014 -0.0782,-2.38417 l 0.10823,-1.89822 h 20.108332 20.10833 v 2.29305 2.29306 l -20.03009,0.0911 c -16.748682,0.0762 -20.060642,0.0115 -20.216562,-0.39483 z m -10e-4,-9.8807 c -0.10195,-0.26566 -0.13665,-1.33722 -0.0771,-2.38125 l 0.10823,-1.89822 20.196522,-0.0911 20.19653,-0.0911 v 2.47233 2.47234 h -20.11941 c -16.704242,0 -20.150862,-0.082 -20.304752,-0.48303 z m -0.86669,-11.59961 c -0.86234,-3.63807 -2.90309,-9.32331 -4.7275,-13.17011 -2.34863,-4.95212 -5.52051,-9.76718 -9.94569,-15.09797 -10.37945,-12.5036 -12.8173,-15.8115 -15.83915,-21.49198 -3.04209,-5.71854 -4.53461,-10.85085 -5.06556,-17.41889 -0.39125,-4.83987 -0.004,-11.74919 0.88415,-15.77838 3.58278,-16.25218 13.82964,-29.6745 28.07257,-36.772146 5.44841,-2.715091 9.80677,-4.099701 16.6912,-5.302629 5.322922,-0.930084 16.265122,-0.844963 21.800432,0.169588 12.89346,2.363208 22.16145,7.07285 30.51423,15.506188 7.54109,7.613811 12.33243,16.81009 14.56369,27.952849 1.05949,5.29098 1.06967,14.69059 0.0209,19.27506 -2.36414,10.33422 -7.67548,19.3461 -18.65137,31.64624 l -1.21003,1.35603 -2.88143,-1.13851 c -4.25345,-1.68061 -8.16672,-3.68501 -11.34809,-5.81254 -3.46822,-2.31936 -9.71069,-8.60121 -12.08889,-12.16516 -2.08833,-3.12955 -4.0623,-6.96145 -3.8026,-7.38165 0.10131,-0.16393 0.93746,-0.41101 1.85811,-0.54907 2.39121,-0.35858 5.80704,-1.71763 8.03647,-3.19744 5.63669,-3.74142 8.57425,-9.90537 7.63136,-16.01303 -0.54113,-3.50521 -1.8615,-6.047 -4.2445,-8.17093 -2.36754,-2.110155 -4.65221,-2.95031 -7.97328,-2.932066 -6.13447,0.0337 -10.93929,4.130206 -12.90449,11.002136 -0.80991,2.83213 -0.91541,9.27971 -0.20712,12.65892 l 0.45564,2.17383 -1.5105,-0.14792 C 96.071588,118.31 89.053258,112.81923 87.387158,105.05046 c -0.4814,-2.24465 -1.72038,-3.40814 -3.29411,-3.09339 -1.63998,0.32799 -1.97947,0.82153 -1.97947,2.87766 0,3.61823 2.62392,8.85671 6.16963,12.31726 2.53161,2.4708 5.12174,4.08962 8.50963,5.31845 2.39995,0.8705 8.146122,1.91349 10.542032,1.91349 0.75174,0 1.23904,0.173 1.24213,0.44098 0.009,0.75856 3.39244,7.25063 5.16123,9.90253 2.54902,3.82166 9.82529,10.90565 14.13759,13.764 2.96258,1.96371 8.21602,4.70269 12.34125,6.43435 0.75312,0.31614 0.70416,0.43532 -1.5875,3.86425 -4.11005,6.1497 -6.67445,12.15632 -9.22053,21.59737 l -0.40434,1.4993 H 108.41653 87.828378 Z m 24.946682,-61.20695 c -0.48164,-0.80638 -1.04035,-4.93448 -1.06234,-7.8493 -0.0298,-3.9425 0.8826,-7.1659 2.62734,-9.28257 3.98119,-4.82988 11.23797,-3.35835 12.65945,2.56708 1.24625,5.19493 -1.49632,10.32855 -6.87831,12.875 -3.00001,1.41943 -6.96313,2.33105 -7.34614,1.68979 z"
       id="path1" /></g></svg>
