<?xml version="1.0" encoding="UTF-8" standalone="no"?>
<!DOCTYPE svg PUBLIC "-//W3C//DTD SVG 1.1//EN" "http://www.w3.org/Graphics/SVG/1.1/DTD/svg11.dtd">
<svg width="100%" height="100%" viewBox="0 0 548 534" version="1.1" xmlns="http://www.w3.org/2000/svg" xmlns:xlink="http://www.w3.org/1999/xlink" xml:space="preserve" xmlns:serif="http://www.serif.com/" style="fill-rule:evenodd;clip-rule:evenodd;stroke-linejoin:round;stroke-miterlimit:2;">
    <g id="g1" transform="matrix(2.83465,0,0,2.83465,-24.2775,-136.584)">
        <g id="Layer-1" serif:id="Layer 1">
            <g id="g11" serif:id="g1">
                <path id="path2" d="M97.896,236.373C92.963,236.039 84.785,234.552 79.11,232.955C68.776,230.048 59.963,225.976 50.779,219.866C34.032,208.725 21.056,192.569 14.125,174.228C12.599,170.19 11.477,166.122 10.17,159.879L10.046,159.288L23.809,159.218C34.647,159.162 37.571,159.217 37.571,159.476C37.571,159.657 38.092,161.384 38.729,163.313C44.312,180.227 57.211,195.275 73.025,203.321C83.548,208.675 93.951,211.216 105.436,211.237C111.164,211.247 114.259,210.977 119.063,210.048C143.239,205.373 163.437,187.234 171.575,162.888L172.737,159.411L199.971,159.274L199.442,161.724C194.366,185.219 178.769,207.317 157.559,221.064C145.101,229.139 132.085,233.881 116.814,235.908C113.783,236.311 101.454,236.613 97.896,236.373L97.896,236.373ZM103.584,159.131C103.293,159.064 102.4,158.877 101.6,158.715C97.029,157.789 92.604,153.923 90.76,149.245C90.118,147.617 89.429,144.279 89.429,142.798C89.429,140.875 90.247,137.701 91.301,135.537C93.021,132.003 96.292,129.133 100.163,127.76C102.14,127.059 106.628,126.796 108.822,127.252C111.439,127.797 114.458,129.496 116.566,131.608C119.642,134.692 121.09,137.823 121.348,141.949C121.815,149.417 117.323,156.196 110.464,158.376C108.449,159.016 104.818,159.415 103.584,159.131ZM9.81,158.066C9.823,157.758 9.886,157.696 9.97,157.907C10.047,158.098 10.037,158.326 9.949,158.414C9.862,158.502 9.799,158.345 9.81,158.066ZM200.861,151.871C200.861,151.507 200.921,151.358 200.994,151.54C201.067,151.722 201.067,152.02 200.994,152.202C200.921,152.383 200.861,152.235 200.861,151.871ZM35.21,147.748C35.223,147.44 35.286,147.377 35.37,147.588C35.447,147.779 35.437,148.007 35.349,148.095C35.262,148.183 35.199,148.027 35.21,147.748L35.21,147.748ZM174.956,145.918C174.959,145.336 175.013,145.129 175.077,145.458C175.14,145.787 175.138,146.263 175.072,146.516C175.006,146.769 174.954,146.5 174.957,145.918L174.956,145.918ZM8.565,141.552C8.565,140.024 8.608,139.399 8.662,140.163C8.715,140.927 8.715,142.177 8.662,142.941C8.608,143.705 8.565,143.08 8.565,141.552ZM201.435,141.949C201.436,140.93 201.484,140.546 201.541,141.095C201.598,141.644 201.597,142.477 201.539,142.947C201.481,143.417 201.434,142.968 201.435,141.949L201.435,141.949ZM201.4,138.774C201.405,138.337 201.464,138.191 201.531,138.448C201.598,138.706 201.594,139.063 201.521,139.242C201.449,139.421 201.394,139.211 201.399,138.774L201.4,138.774ZM174.911,136.9C174.923,136.592 174.986,136.529 175.07,136.74C175.147,136.931 175.137,137.159 175.049,137.247C174.962,137.335 174.899,137.179 174.91,136.9L174.911,136.9ZM8.773,135.202C8.773,134.838 8.833,134.689 8.906,134.871C8.98,135.053 8.98,135.351 8.906,135.533C8.833,135.715 8.773,135.566 8.773,135.202ZM35.475,132.137C35.488,131.829 35.55,131.766 35.635,131.977C35.711,132.168 35.702,132.397 35.614,132.485C35.526,132.572 35.464,132.416 35.475,132.137L35.475,132.137ZM174.381,132.137C174.394,131.829 174.457,131.766 174.541,131.977C174.618,132.168 174.608,132.397 174.52,132.485C174.432,132.572 174.37,132.416 174.381,132.137L174.381,132.137ZM53.578,94.192C53.842,93.901 54.117,93.663 54.189,93.663C54.262,93.663 54.106,93.901 53.843,94.192C53.579,94.483 53.304,94.721 53.232,94.721C53.159,94.721 53.315,94.483 53.578,94.192ZM55.562,92.24C55.562,92.185 55.771,91.976 56.026,91.777C56.445,91.448 56.455,91.457 56.125,91.877C55.78,92.317 55.562,92.457 55.562,92.24L55.562,92.24ZM152.507,91.215L152.003,90.62L152.598,91.124C153.158,91.597 153.314,91.81 153.102,91.81C153.052,91.81 152.784,91.543 152.507,91.215ZM57.282,90.488C57.546,90.196 57.821,89.958 57.893,89.958C57.966,89.958 57.81,90.196 57.547,90.488C57.283,90.779 57.008,91.017 56.936,91.017C56.863,91.017 57.019,90.779 57.282,90.488ZM59.002,89.065C59.002,89.01 59.21,88.801 59.465,88.602C59.885,88.273 59.894,88.282 59.565,88.702C59.219,89.142 59.002,89.282 59.002,89.065L59.002,89.065ZM31.221,81.656C31.221,81.601 31.429,81.393 31.684,81.193C32.103,80.864 32.113,80.874 31.784,81.293C31.438,81.734 31.221,81.874 31.221,81.656L31.221,81.656ZM33.47,79.11C33.733,78.819 34.008,78.581 34.081,78.581C34.154,78.581 33.998,78.819 33.734,79.11C33.471,79.401 33.196,79.64 33.123,79.64C33.05,79.64 33.206,79.401 33.47,79.11ZM170.763,74.017L170.259,73.422L170.855,73.926C171.414,74.4 171.57,74.613 171.359,74.613C171.309,74.613 171.041,74.345 170.763,74.017ZM38.761,73.819C39.025,73.528 39.3,73.29 39.373,73.29C39.445,73.29 39.289,73.528 39.026,73.819C38.763,74.11 38.488,74.348 38.415,74.348C38.342,74.348 38.498,74.11 38.761,73.819ZM96.259,72.844C96.45,72.768 96.678,72.777 96.766,72.865C96.854,72.953 96.697,73.016 96.419,73.004C96.11,72.991 96.048,72.929 96.259,72.844L96.259,72.844ZM103.651,72.321C103.832,72.247 104.13,72.247 104.312,72.321C104.494,72.394 104.345,72.454 103.981,72.454C103.617,72.454 103.469,72.394 103.651,72.321ZM104.973,72.321C105.155,72.247 105.453,72.247 105.635,72.321C105.817,72.394 105.668,72.454 105.304,72.454C104.94,72.454 104.792,72.394 104.973,72.321ZM90.421,49.302C90.603,49.228 90.901,49.228 91.083,49.302C91.265,49.375 91.116,49.435 90.752,49.435C90.388,49.435 90.239,49.375 90.421,49.302ZM116.88,49.037C117.062,48.964 117.359,48.964 117.541,49.037C117.723,49.111 117.574,49.171 117.21,49.171C116.847,49.171 116.698,49.111 116.88,49.037ZM97.833,48.496C98.162,48.433 98.638,48.435 98.891,48.502C99.144,48.568 98.875,48.62 98.293,48.617C97.711,48.614 97.504,48.559 97.833,48.496L97.833,48.496ZM103.792,48.223C104.635,48.17 105.944,48.171 106.703,48.224C107.462,48.277 106.773,48.32 105.172,48.32C103.571,48.319 102.95,48.276 103.792,48.223L103.792,48.223Z" style="fill:rgb(10,42,77);fill-rule:nonzero;"/>
                <path id="path1" d="M9.813,157.096C9.627,155.896 9.43,154.616 9.373,154.252C8.885,151.119 8.679,145.835 8.81,139.832C8.893,136.049 9.019,132.655 9.091,132.292C9.162,131.928 9.298,130.916 9.393,130.043C9.677,127.417 10.798,121.8 11.796,118.004C14.316,108.412 19.969,96.773 26.343,88.053C38.99,70.752 56.542,58.243 76.176,52.538C79.632,51.533 86.976,49.866 89.032,49.619C89.76,49.532 91.665,49.262 93.266,49.02C97.045,48.449 111.802,48.37 115.623,48.9C129.133,50.775 138.133,53.466 148.593,58.759C158.53,63.787 166.326,69.45 174.228,77.38C187.379,90.577 196.269,106.701 199.763,123.693C200.855,129.004 201.129,131.82 201.269,139.171C201.408,146.451 201.112,151.689 200.249,157.229L199.93,159.279L172.763,159.279L172.928,158.552C173.02,158.151 173.313,156.931 173.58,155.84C175.505,147.979 175.651,137.413 173.954,128.72C169.181,104.258 150.712,83.865 125.94,75.703C111.423,70.92 95.239,71.295 80.094,76.764C59.141,84.331 43.02,102.07 37.203,123.957C34.427,134.401 34.251,144.845 36.662,156.059C37.016,157.708 37.306,159.107 37.306,159.168C37.306,159.229 31.196,159.279 23.728,159.279L10.15,159.279L9.813,157.096Z" style="fill:rgb(0,169,157);fill-rule:nonzero;"/>
            </g>
        </g>
    </g>
</svg>
