<?xml version="1.0" encoding="UTF-8" standalone="no"?>
<!DOCTYPE svg PUBLIC "-//W3C//DTD SVG 1.1//EN" "http://www.w3.org/Graphics/SVG/1.1/DTD/svg11.dtd">
<svg width="100%" height="100%" viewBox="0 0 322 554" version="1.1" xmlns="http://www.w3.org/2000/svg" xmlns:xlink="http://www.w3.org/1999/xlink" xml:space="preserve" xmlns:serif="http://www.serif.com/" style="fill-rule:evenodd;clip-rule:evenodd;stroke-linejoin:round;stroke-miterlimit:2;">
    <g id="Layer-1" serif:id="Layer 1" transform="matrix(2.83465,0,0,2.83465,-146.436,-154.077)">
        <path id="path1" d="M106.276,248.905C105.927,247.806 103.002,242.679 101.132,239.89C98.847,236.479 94.902,231.67 91.607,228.277C90.1,226.725 88.526,225.018 88.11,224.484L87.353,223.513L88.987,220.822C91.07,217.391 92.112,214.605 92.91,210.333L93.546,206.926L123.48,207.11L124.288,210.991C125.154,215.154 126.21,217.859 128.161,220.908C128.834,221.961 129.386,223.085 129.386,223.405C129.386,223.725 128.394,225.038 127.181,226.323C122.17,231.632 121.262,232.663 118.674,235.981C116.053,239.341 113.027,244.143 111.359,247.592C110.913,248.513 110.421,249.267 110.265,249.267C110.11,249.267 109.983,244.688 109.983,239.091L109.983,228.914L111.218,227.643C112.269,226.56 112.452,226.129 112.452,224.731C112.452,223.336 112.273,222.912 111.253,221.892C110.27,220.908 109.786,220.692 108.572,220.692C107.357,220.692 106.874,220.908 105.891,221.892C104.865,222.918 104.691,223.332 104.691,224.76C104.691,226.211 104.853,226.582 105.926,227.594L107.161,228.759L107.161,239.189C107.161,248.818 106.957,251.052 106.276,248.905L106.276,248.905ZM88.257,201.515C88.155,201.248 88.119,200.175 88.179,199.131L88.287,197.233L128.504,197.233L128.504,201.819L108.474,201.91C91.725,201.986 88.413,201.921 88.257,201.515L88.257,201.515ZM88.256,191.634C88.154,191.369 88.119,190.297 88.179,189.253L88.287,187.355L128.68,187.173L128.68,192.117L108.561,192.117C91.857,192.117 88.41,192.035 88.256,191.634L88.256,191.634ZM87.389,180.035C86.527,176.397 84.486,170.711 82.662,166.865C80.313,161.912 77.141,157.097 72.716,151.767C62.337,139.263 59.899,135.955 56.877,130.275C53.835,124.556 52.342,119.424 51.811,112.856C51.42,108.016 51.807,101.106 52.696,97.077C56.278,80.825 66.525,67.403 80.768,60.305C86.217,57.59 90.575,56.205 97.459,55.003C102.782,54.072 113.725,54.158 119.26,55.172C132.153,57.535 141.421,62.245 149.774,70.678C157.315,78.292 162.107,87.488 164.338,98.631C165.397,103.922 165.407,113.322 164.359,117.906C161.995,128.24 156.683,137.252 145.707,149.552L144.497,150.908L141.616,149.77C137.362,148.089 133.449,146.085 130.268,143.957C126.8,141.638 120.557,135.356 118.179,131.792C116.091,128.663 114.117,124.831 114.376,124.411C114.478,124.247 115.314,124 116.234,123.862C118.626,123.503 122.041,122.144 124.271,120.664C129.908,116.923 132.845,110.759 131.902,104.651C131.361,101.146 130.041,98.604 127.658,96.48C125.29,94.37 123.005,93.53 119.684,93.548C113.55,93.582 108.745,97.678 106.78,104.55C105.97,107.382 105.865,113.83 106.573,117.209L107.028,119.383L105.518,119.235C96.072,118.31 89.053,112.819 87.387,105.05C86.906,102.806 85.667,101.642 84.093,101.957C82.453,102.285 82.114,102.779 82.114,104.835C82.114,108.453 84.737,113.691 88.283,117.152C90.815,119.623 93.405,121.242 96.793,122.47C99.193,123.341 104.939,124.384 107.335,124.384C108.087,124.384 108.574,124.557 108.577,124.825C108.586,125.583 111.969,132.076 113.738,134.727C116.287,138.549 123.564,145.633 127.876,148.491C130.838,150.455 136.092,153.194 140.217,154.926C140.97,155.242 140.921,155.361 138.63,158.79C134.52,164.94 131.955,170.946 129.409,180.387L129.005,181.887L87.828,181.887L87.389,180.035ZM112.336,118.828C111.854,118.021 111.296,113.893 111.274,110.978C111.244,107.036 112.156,103.812 113.901,101.696C117.882,96.866 125.139,98.337 126.561,104.263C127.807,109.458 125.064,114.591 119.682,117.138C116.682,118.557 112.719,119.469 112.336,118.828Z" style="fill:#00a99d;fill-rule:nonzero;"/>
    </g>
</svg>
